<?xml version="1.0" encoding="utf-8"?>
<!-- Generator: Adobe Illustrator 27.4.1, SVG Export Plug-In . SVG Version: 6.00 Build 0)  -->
<svg version="1.1" id="Layer_1" xmlns="http://www.w3.org/2000/svg" xmlns:xlink="http://www.w3.org/1999/xlink" x="0px" y="0px"
	 viewBox="0 0 50 50" style="enable-background:new 0 0 50 50;" xml:space="preserve">
<style type="text/css">
	.st0{fill-rule:evenodd;clip-rule:evenodd;fill:#8C4036;}
</style>
<path class="st0" d="M44.1,5.8C44.1,5.8,44.1,5.8,44.1,5.8C44.1,5.8,44.1,5.8,44.1,5.8C44.1,5.8,44.1,5.8,44.1,5.8
	c-0.3-0.2-0.6-0.2-0.8,0c-12.1,8.2-24.1,8.9-36.6,0h0C6.5,5.6,6.2,5.6,6,5.8c0,0,0,0,0,0c0,0,0,0,0,0c0,0,0,0,0,0c0,0,0,0,0,0
	s0,0,0,0c0,0,0,0,0,0c0,0,0,0,0,0c0,0,0,0,0,0c0,0,0,0,0,0.1C5.6,6.2,5.6,6.5,5.8,6.7c8.9,12.5,8.2,24.5,0,36.6h0
	c-0.2,0.2-0.2,0.6,0,0.8c0,0,0,0,0,0c0,0,0,0,0,0s0,0,0,0c0,0,0,0,0,0c0.2,0.2,0.6,0.2,0.8,0c12.1-8.2,24.1-8.9,36.6,0
	c0.2,0.2,0.5,0.2,0.7,0.1c0,0,0,0,0,0c0,0,0,0,0,0l0,0c0,0,0,0,0,0c0,0,0,0,0,0c0,0,0,0,0,0c0,0,0,0,0,0c0,0,0,0,0,0c0,0,0,0,0,0
	c0.1-0.2,0.1-0.5-0.1-0.7c-8.9-12.5-8.1-24.5,0-36.6l0,0C44.4,6.5,44.4,6.1,44.1,5.8C44.2,5.9,44.2,5.9,44.1,5.8
	C44.2,5.9,44.2,5.9,44.1,5.8L44.1,5.8L44.1,5.8z"/>
</svg>
