<?xml version="1.0" encoding="UTF-8"?>
<svg width="1200pt" height="1200pt" version="1.1" viewBox="0 0 1200 1200" xmlns="http://www.w3.org/2000/svg">
 <path d="m716.76 253.21-42.238 137.5c-10.586 34.496-28.359 64.219-52.484 88.312-23.996 23.684-53.418 41.172-87.492 51.648l-137.51 42.238 137.51 42.238c34.496 10.586 64.219 28.359 87.918 52.059 23.699 23.711 41.473 53.418 52.059 87.918l42.238 137.51 42.238-137.51c10.586-34.441 28.332-64.133 52.043-87.848 23.699-23.77 53.418-41.543 87.918-52.129l137.51-42.238-137.51-42.238c-34.398-10.574-64.105-28.316-87.848-52.059-23.812-23.812-41.543-53.52-52.117-87.902l-42.238-137.5zm-394.05-193.21-8.5898 27.992c-4.5195 14.668-12.09 27.34-22.168 37.434-10.09 10.078-22.762 17.66-37.445 22.18l-27.992 8.5898 27.992 8.6016c14.613 4.4805 27.254 12.047 37.375 22.168 10.148 10.09 17.715 22.762 22.238 37.445l8.5898 27.992 8.6016-27.992c4.5078-14.684 12.074-27.355 22.168-37.445 10.078-10.078 22.762-17.66 37.445-22.168l27.992-8.6016-27.992-8.5898c-14.684-4.5195-27.367-12.105-37.445-22.18-10.09-10.09-17.66-22.762-22.168-37.434zm0 761.63-18.086 58.848c-6.2344 20.281-16.668 37.742-30.586 51.66-13.934 13.934-31.395 24.379-51.66 30.602l-58.848 18.086 58.848 18.059c20.27 6.2227 37.742 16.684 52.059 31.027 13.934 14.246 24.109 31.438 30.188 51.238l18.086 58.863 18.07-58.863c6.1953-20.184 16.652-37.645 30.586-51.59 14.016-14.004 31.465-24.449 51.676-30.672l58.848-18.059-58.848-18.086c-20.184-6.1797-37.645-16.652-51.59-30.602-14.031-14.016-24.477-31.48-30.672-51.66l-18.07-58.848z" fill="#8c4036"/>
</svg>
